<svg xmlns="http://www.w3.org/2000/svg" version="1.1" xmlns:xlink="http://www.w3.org/1999/xlink" xmlns:svgjs="http://svgjs.dev/svgjs" width="1000" height="515" viewBox="0 0 1000 515"><g transform="matrix(1,0,0,1,-0.6060606060606233,0.2160627842159215)"><svg viewBox="0 0 396 204" data-background-color="#ffffff" preserveAspectRatio="xMidYMid meet" height="515" width="1000" xmlns="http://www.w3.org/2000/svg" xmlns:xlink="http://www.w3.org/1999/xlink"><g id="tight-bounds" transform="matrix(1,0,0,1,0.2400000000000091,-0.08558603491270844)"><svg viewBox="0 0 395.52 204.17117206982542" height="204.17117206982542" width="395.52"><g><svg viewBox="0 0 395.52 204.17117206982542" height="204.17117206982542" width="395.52"><g><svg viewBox="0 0 395.52 204.17117206982542" height="204.17117206982542" width="395.52"><g id="textblocktransform"><svg viewBox="0 0 395.52 204.17117206982542" height="204.17117206982542" width="395.52" id="textblock"><g><svg viewBox="0 0 395.52 204.17117206982542" height="204.17117206982542" width="395.52"><g transform="matrix(1,0,0,1,0,0)"><svg width="395.52" viewBox="1 -31.05 60.15 31.05" height="204.17117206982542" data-palette-color="#27d896"><path d="M39.05-31.05L40.35 0 28.3 0 27.85-12.45 27.4-12.45 26.1 0 14.65 0 13.5-12.45 13.1-12.45 12.55 0 1 0 2.3-31.05 18.7-31.05 20.25-19.75 20.95-19.75 22.25-31.05 39.05-31.05ZM61.15-9.95L60.45 0 41.85 0 41.85-31.05 55.95-31.05 55.95-9.95 61.15-9.95Z" opacity="1" transform="matrix(1,0,0,1,0,0)" fill="#27d896" class="wordmark-text-0" data-fill-palette-color="primary" id="text-0"></path></svg></g></svg></g></svg></g></svg></g><g></g></svg></g><defs></defs></svg><rect width="395.52" height="204.17117206982542" fill="none" stroke="none" visibility="hidden"></rect></g></svg></g></svg>